 <svg version="1.0" xmlns="http://www.w3.org/2000/svg" width="50.000000pt" height="50.000000pt" viewBox="0 0 700.000000 700.000000" preserveAspectRatio="xMidYMid meet">
<metadata>
Created by potrace 1.12, written by Peter Selinger 2001-2015
</metadata>
<g transform="translate(00.000000,700.000000) scale(0.100000,-0.100000)" fill="#000000" stroke="none">
<path d="M1610 3735 l0 -2105 23 -5 c12 -3 938 -4 2057 -3 l2035 3 3 2108 2
2107 -2060 0 -2060 0 0 -2105z m1370 577 c0 -413 3 -551 12 -560 15 -15 163
-16 209 -1 45 15 93 62 267 263 81 93 235 269 342 391 107 121 232 264 278
317 115 133 127 138 331 138 88 0 162 -3 165 -8 2 -4 -59 -79 -136 -167 -77
-88 -168 -191 -201 -230 -33 -38 -153 -175 -266 -304 -113 -129 -231 -264
-261 -300 -30 -36 -88 -99 -129 -140 -68 -68 -73 -75 -56 -85 59 -34 158 -147
654 -745 85 -102 188 -226 231 -276 171 -200 230 -274 230 -284 0 -8 -54 -11
-174 -11 -163 0 -175 1 -206 23 -36 24 -106 100 -339 372 -80 94 -191 222
-246 285 -56 63 -148 169 -204 235 -212 248 -208 245 -376 245 -94 0 -114 -3
-119 -16 -3 -9 -6 -270 -6 -580 l0 -564 -165 0 c-91 0 -165 3 -165 8 0 23 0
2528 0 2535 0 4 74 7 165 7 l165 0 0 -548z"></path>
<path d="M1266 5462 l-29 -4 6 -516 c4 -284 9 -1104 12 -1822 3 -718 8 -1432
11 -1587 l6 -283 612 0 c336 0 1222 3 1969 7 l1358 6 -3 101 -3 101 -1861 1
c-1024 1 -1866 4 -1872 7 -6 5 -12 539 -17 1549 -4 849 -10 1746 -14 1993 l-6
450 -70 0 c-38 0 -83 -1 -99 -3z"></path>
</g>
</svg>